<svg xmlns="http://www.w3.org/2000/svg" xmlns:xlink="http://www.w3.org/1999/xlink" width="50" zoomAndPan="magnify" viewBox="0 0 37.5 37.499999" height="50" preserveAspectRatio="xMidYMid meet" version="1.0"><defs><clipPath id="d4729959f3"><path d="M 18 19 L 19 19 L 19 20 L 18 20 Z M 18 19 " clip-rule="nonzero"/></clipPath><clipPath id="252e1b7fff"><path d="M 18.65625 19.539062 L 18.132812 20.0625 L 17.609375 19.539062 L 18.132812 19.015625 Z M 18.65625 19.539062 " clip-rule="nonzero"/></clipPath><clipPath id="eb1dbc7afd"><path d="M 18.65625 19.539062 L 18.132812 20.0625 L 17.609375 19.539062 L 18.132812 19.015625 Z M 18.65625 19.539062 " clip-rule="nonzero"/></clipPath><clipPath id="33b2ae5de7"><path d="M 0 0 L 36.84375 0 L 36.84375 37 L 0 37 Z M 0 0 " clip-rule="nonzero"/></clipPath></defs><g clip-path="url(#d4729959f3)"><g clip-path="url(#252e1b7fff)"><g clip-path="url(#eb1dbc7afd)"><path fill="#003c64" d="M 18.34375 19.535156 L 18.496094 19.382812 L 18.496094 19.613281 L 18.582031 19.527344 C 18.582031 19.527344 18.582031 19.527344 18.585938 19.527344 C 18.585938 19.53125 18.585938 19.53125 18.585938 19.53125 L 18.496094 19.617188 L 18.40625 19.527344 L 18.496094 19.613281 L 18.496094 19.386719 L 18.34375 19.535156 L 18.5 19.6875 L 18.648438 19.539062 L 18.535156 19.425781 C 18.535156 19.421875 18.535156 19.421875 18.535156 19.421875 C 18.539062 19.421875 18.539062 19.421875 18.539062 19.421875 L 18.652344 19.535156 C 18.652344 19.535156 18.652344 19.539062 18.652344 19.539062 L 18.5 19.691406 C 18.5 19.691406 18.496094 19.691406 18.496094 19.691406 Z M 18.34375 19.535156 " fill-opacity="1" fill-rule="nonzero"/></g></g></g><g clip-path="url(#33b2ae5de7)"><path fill="#ffc44d" d="M 1.210938 -0.0859375 C 0.84375 -0.0859375 0.488281 0.0742188 0.246094 0.351562 C 0 0.628906 -0.113281 0.996094 -0.0664062 1.363281 L 3.375 28.90625 C 3.429688 29.332031 3.691406 29.707031 4.078125 29.898438 L 17.847656 36.785156 C 18.210938 36.964844 18.640625 36.964844 19.003906 36.785156 L 32.773438 29.898438 C 33.160156 29.707031 33.421875 29.332031 33.476562 28.90625 L 36.917969 1.363281 C 36.964844 0.996094 36.851562 0.628906 36.605469 0.351562 C 36.359375 0.0742188 36.007812 -0.0859375 35.636719 -0.0859375 Z M 1.210938 -0.0859375 " fill-opacity="1" fill-rule="nonzero"/></g><path fill="#e5b045" d="M 18.425781 -0.0859375 L 18.425781 36.921875 C 18.226562 36.921875 18.03125 36.875 17.847656 36.785156 L 4.078125 29.898438 C 3.691406 29.707031 3.429688 29.332031 3.375 28.90625 L -0.0664062 1.363281 C -0.113281 0.996094 0 0.628906 0.246094 0.351562 C 0.488281 0.0742188 0.84375 -0.0859375 1.210938 -0.0859375 Z M 18.425781 -0.0859375 " fill-opacity="1" fill-rule="evenodd"/><path fill="#eceff1" d="M 7.144531 5.5 C 7.390625 5.230469 7.734375 5.078125 8.097656 5.078125 L 28.753906 5.078125 C 29.464844 5.078125 30.042969 5.65625 30.042969 6.367188 C 30.042969 7.082031 29.464844 7.660156 28.753906 7.660156 L 9.511719 7.660156 L 10.136719 14.542969 L 28.753906 14.542969 C 29.136719 14.542969 29.5 14.714844 29.742188 15.007812 C 29.988281 15.300781 30.089844 15.691406 30.023438 16.066406 L 28.300781 25.53125 C 28.234375 25.898438 28.015625 26.21875 27.695312 26.410156 L 19.089844 31.574219 C 18.679688 31.816406 18.167969 31.816406 17.761719 31.574219 L 9.15625 26.410156 C 8.800781 26.195312 8.570312 25.828125 8.535156 25.417969 L 6.8125 6.484375 C 6.777344 6.125 6.898438 5.765625 7.144531 5.5 Z M 10.371094 17.125 L 11.046875 24.53125 L 18.425781 28.960938 L 25.867188 24.496094 L 27.207031 17.125 Z M 10.371094 17.125 " fill-opacity="1" fill-rule="evenodd"/><path fill="#cfd8dc" d="M 18.425781 7.660156 L 9.511719 7.660156 L 10.136719 14.542969 L 18.425781 14.542969 L 18.425781 17.125 L 10.371094 17.125 L 11.046875 24.53125 L 18.425781 28.960938 L 18.425781 31.757812 C 18.195312 31.757812 17.964844 31.695312 17.761719 31.574219 L 9.15625 26.410156 C 8.800781 26.195312 8.570312 25.828125 8.535156 25.417969 L 7.671875 15.953125 L 6.8125 6.484375 C 6.777344 6.125 6.898438 5.765625 7.144531 5.5 C 7.390625 5.230469 7.734375 5.078125 8.097656 5.078125 L 18.425781 5.078125 Z M 18.425781 7.660156 " fill-opacity="1" fill-rule="evenodd"/></svg>