<svg xmlns="http://www.w3.org/2000/svg" xmlns:xlink="http://www.w3.org/1999/xlink" width="50" zoomAndPan="magnify" viewBox="0 0 37.5 37.499999" height="50" preserveAspectRatio="xMidYMid meet" version="1.0"><defs><clipPath id="f9c6d64ddc"><path d="M 18 19 L 19 19 L 19 20 L 18 20 Z M 18 19 " clip-rule="nonzero"/></clipPath><clipPath id="7e988eed5a"><path d="M 18.65625 19.539062 L 18.132812 20.0625 L 17.609375 19.539062 L 18.132812 19.015625 Z M 18.65625 19.539062 " clip-rule="nonzero"/></clipPath><clipPath id="0412f12fce"><path d="M 18.65625 19.539062 L 18.132812 20.0625 L 17.609375 19.539062 L 18.132812 19.015625 Z M 18.65625 19.539062 " clip-rule="nonzero"/></clipPath><clipPath id="bea63e2b1f"><path d="M 0.394531 2 L 36.660156 2 L 36.660156 35 L 0.394531 35 Z M 0.394531 2 " clip-rule="nonzero"/></clipPath></defs><g clip-path="url(#f9c6d64ddc)"><g clip-path="url(#7e988eed5a)"><g clip-path="url(#0412f12fce)"><path fill="#003c64" d="M 18.34375 19.535156 L 18.496094 19.382812 L 18.496094 19.613281 L 18.582031 19.527344 C 18.582031 19.527344 18.582031 19.527344 18.585938 19.527344 C 18.585938 19.53125 18.585938 19.53125 18.585938 19.53125 L 18.496094 19.617188 L 18.40625 19.527344 L 18.496094 19.613281 L 18.496094 19.386719 L 18.34375 19.535156 L 18.5 19.6875 L 18.648438 19.539062 L 18.535156 19.425781 C 18.535156 19.421875 18.535156 19.421875 18.535156 19.421875 C 18.539062 19.421875 18.539062 19.421875 18.539062 19.421875 L 18.652344 19.535156 C 18.652344 19.535156 18.652344 19.539062 18.652344 19.539062 L 18.5 19.691406 C 18.5 19.691406 18.496094 19.691406 18.496094 19.691406 Z M 18.34375 19.535156 " fill-opacity="1" fill-rule="nonzero"/></g></g></g><path fill="#53c1de" d="M 21.765625 18.589844 C 21.765625 16.84375 20.316406 15.433594 18.527344 15.433594 C 16.738281 15.433594 15.289062 16.84375 15.289062 18.589844 C 15.289062 20.332031 16.738281 21.746094 18.527344 21.746094 C 20.316406 21.746094 21.765625 20.332031 21.765625 18.589844 Z M 21.765625 18.589844 " fill-opacity="1" fill-rule="nonzero"/><g clip-path="url(#bea63e2b1f)"><path fill="#53c1de" d="M 29.046875 12.730469 C 29.730469 10.019531 30.589844 4.996094 27.558594 3.292969 C 24.542969 1.597656 20.617188 4.847656 18.546875 6.796875 C 16.480469 4.867188 12.445312 1.632812 9.414062 3.339844 C 6.402344 5.042969 7.332031 9.980469 8.027344 12.707031 C 5.214844 13.484375 0.394531 15.164062 0.394531 18.589844 C 0.394531 22.003906 5.210938 23.828125 8.007812 24.609375 C 7.304688 27.347656 6.421875 32.21875 9.441406 33.914062 C 12.480469 35.621094 16.503906 32.464844 18.59375 30.492188 C 20.679688 32.453125 24.570312 35.632812 27.585938 33.929688 C 30.613281 32.222656 29.824219 27.269531 29.125 24.527344 C 31.835938 23.746094 36.660156 21.960938 36.660156 18.589844 C 36.660156 15.195312 31.816406 13.503906 29.046875 12.730469 Z M 28.703125 23.074219 C 28.242188 21.65625 27.625 20.152344 26.867188 18.597656 C 27.589844 17.078125 28.183594 15.589844 28.632812 14.183594 C 30.660156 14.757812 35.113281 16.066406 35.113281 18.589844 C 35.113281 21.132812 30.839844 22.457031 28.703125 23.074219 Z M 26.808594 32.625 C 24.558594 33.894531 21.214844 30.855469 19.675781 29.410156 C 20.695312 28.320312 21.71875 27.054688 22.714844 25.648438 C 24.46875 25.496094 26.125 25.25 27.625 24.910156 C 28.117188 26.847656 29.070312 31.347656 26.808594 32.625 Z M 10.214844 32.605469 C 7.964844 31.339844 8.992188 26.996094 9.511719 24.976562 C 10.996094 25.296875 12.640625 25.527344 14.398438 25.667969 C 15.398438 27.042969 16.453125 28.308594 17.511719 29.414062 C 16.203125 30.648438 12.476562 33.878906 10.214844 32.605469 Z M 1.945312 18.589844 C 1.945312 16.035156 6.371094 14.734375 8.445312 14.160156 C 8.898438 15.601562 9.496094 17.105469 10.214844 18.625 C 9.484375 20.167969 8.882812 21.699219 8.421875 23.152344 C 6.445312 22.601562 1.945312 21.144531 1.945312 18.589844 Z M 10.191406 4.648438 C 12.453125 3.371094 15.960938 6.476562 17.460938 7.875 C 16.40625 8.976562 15.363281 10.234375 14.371094 11.601562 C 12.664062 11.757812 11.03125 12.003906 9.53125 12.335938 C 8.96875 10.136719 7.933594 5.921875 10.191406 4.648438 Z M 23.824219 13.242188 C 24.980469 13.386719 26.089844 13.574219 27.128906 13.804688 C 26.816406 14.78125 26.425781 15.804688 25.96875 16.851562 C 25.304688 15.621094 24.589844 14.414062 23.824219 13.242188 Z M 18.546875 8.953125 C 19.261719 9.710938 19.976562 10.550781 20.679688 11.464844 C 19.253906 11.398438 17.820312 11.398438 16.394531 11.464844 C 17.097656 10.558594 17.820312 9.71875 18.546875 8.953125 Z M 11.101562 16.847656 C 10.652344 15.804688 10.265625 14.78125 9.949219 13.789062 C 10.984375 13.566406 12.085938 13.378906 13.238281 13.242188 C 12.46875 14.410156 11.753906 15.613281 11.101562 16.847656 Z M 13.269531 24.042969 C 12.082031 23.914062 10.960938 23.742188 9.929688 23.519531 C 10.25 22.511719 10.644531 21.464844 11.105469 20.402344 C 11.765625 21.648438 12.488281 22.863281 13.269531 24.042969 Z M 18.589844 28.328125 C 17.855469 27.558594 17.121094 26.703125 16.40625 25.785156 C 17.84375 25.839844 19.28125 25.839844 20.71875 25.777344 C 20.011719 26.710938 19.296875 27.566406 18.589844 28.328125 Z M 25.984375 20.347656 C 26.46875 21.421875 26.875 22.464844 27.203125 23.457031 C 26.148438 23.691406 25.015625 23.878906 23.816406 24.019531 C 24.589844 22.824219 25.316406 21.601562 25.984375 20.347656 Z M 21.851562 24.199219 C 19.652344 24.355469 17.441406 24.351562 15.246094 24.214844 C 13.996094 22.4375 12.882812 20.566406 11.925781 18.625 C 12.878906 16.6875 13.984375 14.820312 15.226562 13.046875 C 17.425781 12.886719 19.636719 12.882812 21.835938 13.046875 C 23.070312 14.824219 24.171875 16.683594 25.148438 18.605469 C 24.183594 20.539062 23.074219 22.410156 21.851562 24.199219 Z M 26.785156 4.601562 C 29.046875 5.875 28.039062 10.386719 27.546875 12.351562 C 26.042969 12.011719 24.40625 11.761719 22.695312 11.605469 C 21.699219 10.222656 20.667969 8.964844 19.632812 7.875 C 21.152344 6.445312 24.546875 3.34375 26.785156 4.601562 Z M 26.785156 4.601562 " fill-opacity="1" fill-rule="evenodd"/></g></svg>