<svg xmlns="http://www.w3.org/2000/svg" xmlns:xlink="http://www.w3.org/1999/xlink" width="50" zoomAndPan="magnify" viewBox="0 0 37.5 37.499999" height="50" preserveAspectRatio="xMidYMid meet" version="1.0"><defs><clipPath id="1322e6680c"><path d="M 0 0 L 37 0 L 37 37 L 0 37 Z M 0 0 " clip-rule="nonzero"/></clipPath><clipPath id="12d5fa579e"><path d="M 36.996094 18.582031 L 18.679688 36.898438 L -0.160156 18.058594 L 18.15625 -0.257812 Z M 36.996094 18.582031 " clip-rule="nonzero"/></clipPath><clipPath id="2c2242debc"><path d="M 36.996094 18.582031 L 18.679688 36.898438 L -0.160156 18.058594 L 18.15625 -0.257812 Z M 36.996094 18.582031 " clip-rule="nonzero"/></clipPath><clipPath id="e2c3ea488c"><path d="M 18 19 L 21 19 L 21 22 L 18 22 Z M 18 19 " clip-rule="nonzero"/></clipPath><clipPath id="23c0d94410"><path d="M 20.179688 20.679688 L 19.132812 21.726562 L 18.085938 20.679688 L 19.132812 19.632812 Z M 20.179688 20.679688 " clip-rule="nonzero"/></clipPath><clipPath id="ebd162303b"><path d="M 20.179688 20.679688 L 19.132812 21.726562 L 18.085938 20.679688 L 19.132812 19.632812 Z M 20.179688 20.679688 " clip-rule="nonzero"/></clipPath></defs><g clip-path="url(#1322e6680c)"><g clip-path="url(#12d5fa579e)"><g clip-path="url(#2c2242debc)"><path fill="#003c64" d="M 0.0976562 18.324219 L 18.316406 0.109375 C 18.355469 0.0703125 18.414062 0.0585938 18.464844 0.078125 C 18.515625 0.101562 18.546875 0.148438 18.546875 0.203125 L 18.546875 27.679688 L 28.605469 17.621094 C 28.65625 17.570312 28.742188 17.570312 28.792969 17.621094 C 28.847656 17.675781 28.847656 17.761719 28.792969 17.8125 L 18.507812 28.097656 C 18.503906 28.101562 18.503906 28.105469 18.5 28.105469 C 18.480469 28.125 18.453125 28.132812 18.429688 28.136719 C 18.421875 28.140625 18.414062 28.140625 18.402344 28.140625 C 18.371094 28.136719 18.339844 28.125 18.316406 28.101562 L 7.644531 17.425781 C 7.59375 17.375 7.59375 17.289062 7.644531 17.238281 C 7.699219 17.183594 7.78125 17.183594 7.835938 17.238281 L 18.277344 27.679688 L 18.277344 0.527344 L 0.382812 18.421875 L 18.578125 36.613281 L 36.605469 18.585938 L 23.171875 5.152344 C 23.121094 5.101562 23.121094 5.015625 23.171875 4.964844 C 23.226562 4.910156 23.308594 4.910156 23.363281 4.964844 L 36.890625 18.492188 C 36.941406 18.542969 36.941406 18.628906 36.890625 18.679688 L 18.671875 36.898438 C 18.621094 36.949219 18.535156 36.949219 18.480469 36.898438 L 0.101562 18.515625 C 0.046875 18.464844 0.046875 18.378906 0.0976562 18.324219 Z M 0.0976562 18.324219 " fill-opacity="1" fill-rule="nonzero"/></g></g></g><g clip-path="url(#e2c3ea488c)"><g clip-path="url(#23c0d94410)"><g clip-path="url(#ebd162303b)"><path fill="#003c64" d="M 18.507812 20.667969 L 19.332031 19.84375 C 19.335938 19.839844 19.339844 19.839844 19.339844 19.839844 C 19.34375 19.839844 19.34375 19.84375 19.34375 19.847656 L 19.34375 21.089844 L 19.800781 20.636719 C 19.800781 20.632812 19.804688 20.632812 19.808594 20.636719 C 19.8125 20.636719 19.8125 20.640625 19.808594 20.644531 L 19.34375 21.109375 C 19.339844 21.109375 19.339844 21.109375 19.339844 21.113281 C 19.339844 21.113281 19.339844 21.113281 19.335938 21.113281 C 19.335938 21.113281 19.335938 21.109375 19.332031 21.109375 L 18.851562 20.625 C 18.847656 20.625 18.847656 20.621094 18.851562 20.617188 C 18.851562 20.617188 18.855469 20.617188 18.859375 20.617188 L 19.332031 21.089844 L 19.332031 19.859375 L 18.523438 20.671875 L 19.34375 21.496094 L 20.164062 20.679688 L 19.554688 20.070312 C 19.550781 20.066406 19.550781 20.0625 19.554688 20.0625 C 19.554688 20.058594 19.558594 20.058594 19.5625 20.0625 L 20.175781 20.675781 C 20.175781 20.675781 20.175781 20.679688 20.175781 20.683594 L 19.351562 21.507812 C 19.347656 21.511719 19.34375 21.511719 19.339844 21.507812 L 18.507812 20.675781 C 18.507812 20.671875 18.507812 20.667969 18.507812 20.667969 Z M 18.507812 20.667969 " fill-opacity="1" fill-rule="nonzero"/></g></g></g></svg>