<svg xmlns="http://www.w3.org/2000/svg" xmlns:xlink="http://www.w3.org/1999/xlink" width="50" zoomAndPan="magnify" viewBox="0 0 37.5 37.499999" height="50" preserveAspectRatio="xMidYMid meet" version="1.0"><defs><clipPath id="6a2b4e3cfc"><path d="M 18 19 L 19 19 L 19 20 L 18 20 Z M 18 19 " clip-rule="nonzero"/></clipPath><clipPath id="09ace47727"><path d="M 18.65625 19.539062 L 18.132812 20.0625 L 17.609375 19.539062 L 18.132812 19.015625 Z M 18.65625 19.539062 " clip-rule="nonzero"/></clipPath><clipPath id="8fafb49334"><path d="M 18.65625 19.539062 L 18.132812 20.0625 L 17.609375 19.539062 L 18.132812 19.015625 Z M 18.65625 19.539062 " clip-rule="nonzero"/></clipPath><clipPath id="a2644d5287"><path d="M 0 0 L 37.007812 0 L 37.007812 37 L 0 37 Z M 0 0 " clip-rule="nonzero"/></clipPath></defs><g clip-path="url(#6a2b4e3cfc)"><g clip-path="url(#09ace47727)"><g clip-path="url(#8fafb49334)"><path fill="#003c64" d="M 18.34375 19.535156 L 18.496094 19.382812 L 18.496094 19.613281 L 18.582031 19.527344 C 18.582031 19.527344 18.582031 19.527344 18.585938 19.527344 C 18.585938 19.53125 18.585938 19.53125 18.585938 19.53125 L 18.496094 19.617188 L 18.40625 19.527344 L 18.496094 19.613281 L 18.496094 19.386719 L 18.34375 19.535156 L 18.5 19.6875 L 18.648438 19.539062 L 18.535156 19.425781 C 18.535156 19.421875 18.535156 19.421875 18.535156 19.421875 C 18.539062 19.421875 18.539062 19.421875 18.539062 19.421875 L 18.652344 19.535156 C 18.652344 19.535156 18.652344 19.539062 18.652344 19.539062 L 18.5 19.691406 C 18.5 19.691406 18.496094 19.691406 18.496094 19.691406 Z M 18.34375 19.535156 " fill-opacity="1" fill-rule="nonzero"/></g></g></g><g clip-path="url(#a2644d5287)"><path fill="#f03c2e" d="M 36.308594 16.855469 L 20.152344 0.699219 C 19.929688 0.476562 19.671875 0.304688 19.378906 0.183594 C 19.085938 0.0625 18.78125 0 18.464844 0 C 18.148438 0 17.847656 0.0625 17.554688 0.183594 C 17.261719 0.304688 17.003906 0.476562 16.78125 0.699219 L 13.425781 4.050781 L 17.683594 8.308594 C 18.671875 7.960938 19.804688 8.199219 20.59375 8.988281 C 20.976562 9.371094 21.230469 9.828125 21.351562 10.355469 C 21.472656 10.882812 21.445312 11.402344 21.265625 11.917969 L 25.371094 16.019531 C 26.363281 15.675781 27.507812 15.898438 28.296875 16.691406 C 28.566406 16.957031 28.769531 17.265625 28.914062 17.613281 C 29.058594 17.957031 29.128906 18.320312 29.128906 18.695312 C 29.128906 19.074219 29.058594 19.433594 28.914062 19.78125 C 28.769531 20.128906 28.566406 20.4375 28.300781 20.703125 C 28.03125 20.96875 27.726562 21.175781 27.378906 21.316406 C 27.03125 21.460938 26.667969 21.535156 26.292969 21.535156 C 25.917969 21.535156 25.554688 21.460938 25.207031 21.316406 C 24.859375 21.171875 24.550781 20.96875 24.285156 20.703125 C 23.453125 19.867188 23.25 18.644531 23.667969 17.617188 L 19.84375 13.792969 L 19.84375 23.859375 C 20.125 23.996094 20.375 24.175781 20.59375 24.394531 C 20.859375 24.660156 21.066406 24.96875 21.210938 25.316406 C 21.355469 25.664062 21.425781 26.023438 21.425781 26.402344 C 21.425781 26.777344 21.355469 27.136719 21.210938 27.484375 C 21.066406 27.832031 20.859375 28.140625 20.59375 28.40625 C 20.328125 28.671875 20.023438 28.875 19.675781 29.019531 C 19.328125 29.164062 18.964844 29.238281 18.589844 29.238281 C 18.214844 29.238281 17.851562 29.164062 17.503906 29.019531 C 17.15625 28.875 16.851562 28.671875 16.585938 28.40625 C 16.320312 28.140625 16.113281 27.832031 15.96875 27.484375 C 15.824219 27.140625 15.753906 26.777344 15.753906 26.402344 C 15.753906 26.023438 15.824219 25.664062 15.96875 25.316406 C 16.113281 24.96875 16.320312 24.660156 16.585938 24.394531 C 16.859375 24.121094 17.164062 23.914062 17.511719 23.777344 L 17.511719 13.617188 C 17.175781 13.476562 16.859375 13.273438 16.585938 12.996094 C 16.175781 12.589844 15.917969 12.105469 15.808594 11.539062 C 15.695312 10.976562 15.75 10.425781 15.972656 9.898438 L 11.777344 5.703125 L 0.699219 16.769531 C 0.472656 16.992188 0.300781 17.25 0.179688 17.542969 C 0.0585938 17.832031 0 18.136719 0 18.453125 C 0 18.769531 0.0585938 19.074219 0.179688 19.367188 C 0.300781 19.660156 0.472656 19.917969 0.699219 20.140625 L 16.855469 36.296875 C 17.078125 36.519531 17.335938 36.691406 17.628906 36.8125 C 17.921875 36.933594 18.222656 36.992188 18.539062 36.992188 C 18.855469 36.992188 19.160156 36.933594 19.453125 36.8125 C 19.746094 36.691406 20 36.519531 20.226562 36.296875 L 36.308594 20.238281 C 36.53125 20.015625 36.703125 19.757812 36.824219 19.464844 C 36.945312 19.171875 37.007812 18.867188 37.007812 18.550781 C 37.007812 18.234375 36.945312 17.933594 36.824219 17.640625 C 36.703125 17.347656 36.53125 17.089844 36.308594 16.867188 " fill-opacity="1" fill-rule="nonzero"/></g></svg>