<svg xmlns="http://www.w3.org/2000/svg" xmlns:xlink="http://www.w3.org/1999/xlink" width="50" zoomAndPan="magnify" viewBox="0 0 37.5 37.499999" height="50" preserveAspectRatio="xMidYMid meet" version="1.0"><defs><clipPath id="84d0357dc5"><path d="M 18 19 L 19 19 L 19 20 L 18 20 Z M 18 19 " clip-rule="nonzero"/></clipPath><clipPath id="627afdcfbc"><path d="M 18.65625 19.539062 L 18.132812 20.0625 L 17.609375 19.539062 L 18.132812 19.015625 Z M 18.65625 19.539062 " clip-rule="nonzero"/></clipPath><clipPath id="2c1e6f188f"><path d="M 18.65625 19.539062 L 18.132812 20.0625 L 17.609375 19.539062 L 18.132812 19.015625 Z M 18.65625 19.539062 " clip-rule="nonzero"/></clipPath><clipPath id="3e517e588f"><path d="M 2.453125 0 L 35.019531 0 L 35.019531 37 L 2.453125 37 Z M 2.453125 0 " clip-rule="nonzero"/></clipPath></defs><g clip-path="url(#84d0357dc5)"><g clip-path="url(#627afdcfbc)"><g clip-path="url(#2c1e6f188f)"><path fill="#003c64" d="M 18.34375 19.535156 L 18.496094 19.382812 L 18.496094 19.613281 L 18.582031 19.527344 C 18.582031 19.527344 18.582031 19.527344 18.585938 19.527344 C 18.585938 19.53125 18.585938 19.53125 18.585938 19.53125 L 18.496094 19.617188 L 18.40625 19.527344 L 18.496094 19.613281 L 18.496094 19.386719 L 18.34375 19.535156 L 18.5 19.6875 L 18.648438 19.539062 L 18.535156 19.425781 C 18.535156 19.421875 18.535156 19.421875 18.535156 19.421875 C 18.539062 19.421875 18.539062 19.421875 18.539062 19.421875 L 18.652344 19.535156 C 18.652344 19.535156 18.652344 19.539062 18.652344 19.539062 L 18.5 19.691406 C 18.5 19.691406 18.496094 19.691406 18.496094 19.691406 Z M 18.34375 19.535156 " fill-opacity="1" fill-rule="nonzero"/></g></g></g><g clip-path="url(#3e517e588f)"><path fill="#e44d26" d="M 5.410156 33.222656 L 2.441406 0.105469 L 35.027344 0.105469 L 32.058594 33.21875 L 18.714844 36.902344 Z M 5.410156 33.222656 " fill-opacity="1" fill-rule="nonzero"/></g><path fill="#f16529" d="M 29.515625 31.109375 L 32.054688 2.8125 L 18.734375 2.8125 L 18.734375 34.085938 Z M 29.515625 31.109375 " fill-opacity="1" fill-rule="nonzero"/><path fill="#ebebeb" d="M 18.722656 6.875 L 8.503906 6.875 L 9.605469 19.160156 L 18.734375 19.160156 L 18.734375 15.097656 L 13.335938 15.097656 L 12.964844 10.9375 L 18.734375 10.9375 L 18.734375 6.875 Z M 18.734375 25.632812 L 18.71875 25.636719 L 14.175781 24.417969 L 13.886719 21.175781 L 9.789062 21.175781 L 10.359375 27.554688 L 18.714844 29.855469 L 18.734375 29.847656 Z M 18.734375 25.632812 " fill-opacity="1" fill-rule="nonzero"/><path fill="#ffffff" d="M 18.722656 19.160156 L 23.746094 19.160156 L 23.28125 24.425781 L 18.734375 25.648438 L 18.734375 29.875 L 27.09375 27.566406 L 28.214844 15.09375 L 18.734375 15.09375 Z M 28.839844 7.964844 L 28.9375 6.875 L 18.71875 6.875 L 18.71875 10.9375 L 28.570312 10.9375 L 28.652344 10.023438 Z M 28.839844 7.964844 " fill-opacity="1" fill-rule="nonzero"/></svg>