<svg xmlns="http://www.w3.org/2000/svg" xmlns:xlink="http://www.w3.org/1999/xlink" width="50" zoomAndPan="magnify" viewBox="0 0 37.5 37.499999" height="50" preserveAspectRatio="xMidYMid meet" version="1.0"><defs><clipPath id="41e8aa60a2"><path d="M 18 19 L 19 19 L 19 20 L 18 20 Z M 18 19 " clip-rule="nonzero"/></clipPath><clipPath id="7d24c66113"><path d="M 18.65625 19.539062 L 18.132812 20.0625 L 17.609375 19.539062 L 18.132812 19.015625 Z M 18.65625 19.539062 " clip-rule="nonzero"/></clipPath><clipPath id="ee89c2bc56"><path d="M 18.65625 19.539062 L 18.132812 20.0625 L 17.609375 19.539062 L 18.132812 19.015625 Z M 18.65625 19.539062 " clip-rule="nonzero"/></clipPath><clipPath id="43879bed5a"><path d="M 2.3125 0 L 34.878906 0 L 34.878906 37.007812 L 2.3125 37.007812 Z M 2.3125 0 " clip-rule="nonzero"/></clipPath><clipPath id="af642c8ace"><path d="M 27 17 L 31.871094 17 L 31.871094 22.140625 L 27 22.140625 Z M 27 17 " clip-rule="nonzero"/></clipPath><clipPath id="54554a2643"><path d="M 5.226562 14.738281 L 27 14.738281 L 27 22.140625 L 5.226562 22.140625 Z M 5.226562 14.738281 " clip-rule="nonzero"/></clipPath><clipPath id="69592d6b08"><path d="M 10 17 L 25 17 L 25 22.140625 L 10 22.140625 Z M 10 17 " clip-rule="nonzero"/></clipPath></defs><g clip-path="url(#41e8aa60a2)"><g clip-path="url(#7d24c66113)"><g clip-path="url(#ee89c2bc56)"><path fill="#003c64" d="M 18.34375 19.535156 L 18.496094 19.382812 L 18.496094 19.613281 L 18.582031 19.527344 C 18.582031 19.527344 18.582031 19.527344 18.585938 19.527344 C 18.585938 19.53125 18.585938 19.53125 18.585938 19.53125 L 18.496094 19.617188 L 18.40625 19.527344 L 18.496094 19.613281 L 18.496094 19.386719 L 18.34375 19.535156 L 18.5 19.6875 L 18.648438 19.539062 L 18.535156 19.425781 C 18.535156 19.421875 18.535156 19.421875 18.535156 19.421875 C 18.539062 19.421875 18.539062 19.421875 18.539062 19.421875 L 18.652344 19.535156 C 18.652344 19.535156 18.652344 19.539062 18.652344 19.539062 L 18.5 19.691406 C 18.5 19.691406 18.496094 19.691406 18.496094 19.691406 Z M 18.34375 19.535156 " fill-opacity="1" fill-rule="nonzero"/></g></g></g><g clip-path="url(#43879bed5a)"><path fill="#8cc03e" d="M 2.378906 10.234375 L 2.378906 26.917969 C 2.378906 27.539062 2.710938 28.117188 3.25 28.425781 L 17.726562 36.773438 C 18.265625 37.082031 18.929688 37.082031 19.46875 36.773438 L 33.9375 28.429688 C 34.476562 28.113281 34.808594 27.542969 34.808594 26.921875 L 34.808594 10.234375 C 34.808594 9.617188 34.476562 9.039062 33.933594 8.726562 L 19.472656 0.386719 C 18.929688 0.0742188 18.265625 0.0742188 17.726562 0.386719 L 17.722656 0.386719 L 3.25 8.726562 C 2.710938 9.039062 2.378906 9.617188 2.378906 10.234375 Z M 2.378906 10.234375 " fill-opacity="1" fill-rule="nonzero"/></g><g clip-path="url(#af642c8ace)"><path fill="#2e5203" d="M 29.808594 17.402344 C 29.746094 17.402344 29.683594 17.414062 29.625 17.445312 L 27.867188 18.460938 C 27.753906 18.527344 27.683594 18.652344 27.683594 18.785156 L 27.683594 20.8125 C 27.683594 20.945312 27.753906 21.070312 27.867188 21.132812 L 28.324219 21.398438 C 28.550781 21.507812 28.632812 21.507812 28.734375 21.507812 C 29.0625 21.507812 29.253906 21.308594 29.253906 20.957031 L 29.253906 18.957031 C 29.253906 18.925781 29.226562 18.90625 29.199219 18.90625 L 28.980469 18.90625 C 28.953125 18.90625 28.925781 18.929688 28.925781 18.957031 L 28.925781 20.960938 C 28.925781 21.113281 28.765625 21.269531 28.503906 21.140625 L 28.027344 20.859375 C 28.011719 20.847656 27.996094 20.832031 27.996094 20.8125 L 27.996094 18.785156 C 27.996094 18.765625 28.011719 18.746094 28.027344 18.734375 L 29.785156 17.722656 C 29.800781 17.714844 29.820312 17.714844 29.835938 17.722656 L 31.59375 18.734375 C 31.609375 18.746094 31.625 18.765625 31.625 18.785156 L 31.625 20.8125 C 31.625 20.832031 31.613281 20.851562 31.597656 20.863281 L 29.835938 21.875 C 29.820312 21.882812 29.800781 21.882812 29.785156 21.875 L 29.332031 21.605469 C 29.320312 21.597656 29.300781 21.597656 29.285156 21.605469 C 29.164062 21.675781 29.140625 21.683594 29.023438 21.726562 C 28.992188 21.734375 28.949219 21.75 29.035156 21.800781 L 29.628906 22.148438 C 29.683594 22.179688 29.746094 22.195312 29.808594 22.195312 C 29.875 22.195312 29.9375 22.179688 29.992188 22.148438 L 31.753906 21.136719 C 31.867188 21.070312 31.9375 20.945312 31.9375 20.8125 L 31.9375 18.785156 C 31.9375 18.652344 31.867188 18.527344 31.753906 18.464844 L 29.992188 17.445312 C 29.9375 17.414062 29.875 17.402344 29.808594 17.402344 Z M 30.28125 18.851562 C 29.78125 18.851562 29.480469 19.0625 29.480469 19.417969 C 29.480469 19.804688 29.777344 19.910156 30.257812 19.957031 C 30.832031 20.011719 30.878906 20.097656 30.878906 20.210938 C 30.878906 20.40625 30.722656 20.492188 30.351562 20.492188 C 29.886719 20.492188 29.785156 20.375 29.75 20.144531 C 29.746094 20.117188 29.726562 20.097656 29.703125 20.097656 L 29.472656 20.097656 C 29.4375 20.097656 29.421875 20.117188 29.421875 20.152344 C 29.421875 20.449219 29.582031 20.796875 30.351562 20.796875 C 30.910156 20.796875 31.230469 20.578125 31.230469 20.195312 C 31.230469 19.816406 30.96875 19.714844 30.429688 19.644531 C 29.882812 19.570312 29.832031 19.535156 29.832031 19.40625 C 29.832031 19.300781 29.875 19.160156 30.28125 19.160156 C 30.640625 19.160156 30.773438 19.238281 30.828125 19.480469 C 30.835938 19.503906 30.855469 19.523438 30.878906 19.523438 L 31.105469 19.523438 C 31.121094 19.523438 31.132812 19.515625 31.144531 19.503906 C 31.152344 19.492188 31.160156 19.480469 31.160156 19.46875 C 31.125 19.046875 30.84375 18.851562 30.28125 18.851562 Z M 30.28125 18.851562 " fill-opacity="1" fill-rule="nonzero"/></g><g clip-path="url(#54554a2643)"><path fill="#404137" d="M 19.460938 14.738281 C 19.441406 14.738281 19.421875 14.746094 19.402344 14.753906 C 19.367188 14.777344 19.347656 14.808594 19.347656 14.851562 L 19.347656 17.710938 C 19.347656 17.738281 19.335938 17.765625 19.308594 17.777344 C 19.285156 17.792969 19.257812 17.792969 19.230469 17.777344 L 18.765625 17.507812 C 18.691406 17.464844 18.613281 17.464844 18.539062 17.507812 L 16.675781 18.585938 C 16.605469 18.625 16.5625 18.703125 16.5625 18.785156 L 16.5625 20.9375 C 16.5625 21.023438 16.601562 21.089844 16.675781 21.132812 L 18.539062 22.207031 C 18.613281 22.25 18.691406 22.25 18.765625 22.207031 L 20.628906 21.132812 C 20.703125 21.089844 20.742188 21.023438 20.742188 20.9375 L 20.742188 15.570312 C 20.742188 15.488281 20.699219 15.410156 20.625 15.371094 L 19.515625 14.75 C 19.5 14.742188 19.480469 14.738281 19.460938 14.738281 Z M 7.460938 17.425781 C 7.425781 17.429688 7.394531 17.433594 7.359375 17.453125 L 5.496094 18.53125 C 5.421875 18.574219 5.382812 18.636719 5.382812 18.722656 L 5.386719 21.613281 C 5.386719 21.652344 5.40625 21.691406 5.441406 21.710938 C 5.476562 21.730469 5.519531 21.730469 5.554688 21.710938 L 6.660156 21.074219 C 6.730469 21.035156 6.777344 20.960938 6.777344 20.882812 L 6.777344 19.53125 C 6.777344 19.449219 6.820312 19.378906 6.890625 19.335938 L 7.359375 19.066406 C 7.394531 19.042969 7.433594 19.035156 7.472656 19.035156 C 7.511719 19.035156 7.550781 19.042969 7.585938 19.066406 L 8.054688 19.335938 C 8.125 19.378906 8.167969 19.449219 8.167969 19.53125 L 8.167969 20.878906 C 8.167969 20.960938 8.214844 21.035156 8.285156 21.074219 L 9.390625 21.710938 C 9.425781 21.730469 9.46875 21.730469 9.503906 21.710938 C 9.535156 21.691406 9.558594 21.652344 9.558594 21.613281 L 9.5625 18.722656 C 9.5625 18.636719 9.523438 18.574219 9.449219 18.53125 L 7.585938 17.453125 C 7.554688 17.433594 7.519531 17.429688 7.484375 17.425781 Z M 24.222656 17.453125 C 24.179688 17.453125 24.144531 17.464844 24.109375 17.484375 L 22.246094 18.558594 C 22.175781 18.601562 22.132812 18.671875 22.132812 18.753906 L 22.132812 20.90625 C 22.132812 20.988281 22.175781 21.0625 22.246094 21.101562 L 24.097656 22.15625 C 24.167969 22.195312 24.25 22.199219 24.320312 22.160156 L 25.441406 21.535156 C 25.476562 21.515625 25.5 21.480469 25.5 21.4375 C 25.5 21.398438 25.480469 21.359375 25.445312 21.339844 L 23.566406 20.265625 C 23.53125 20.246094 23.507812 20.203125 23.507812 20.164062 L 23.507812 19.492188 C 23.507812 19.449219 23.53125 19.414062 23.566406 19.394531 L 24.148438 19.058594 C 24.183594 19.035156 24.226562 19.035156 24.261719 19.058594 L 24.847656 19.394531 C 24.882812 19.414062 24.902344 19.445312 24.902344 19.492188 L 24.902344 20.019531 C 24.902344 20.0625 24.921875 20.097656 24.957031 20.117188 C 24.992188 20.136719 25.035156 20.136719 25.070312 20.117188 L 26.1875 19.46875 C 26.257812 19.425781 26.300781 19.355469 26.300781 19.273438 L 26.300781 18.753906 C 26.300781 18.667969 26.261719 18.601562 26.1875 18.558594 L 24.335938 17.484375 C 24.300781 17.464844 24.261719 17.453125 24.222656 17.453125 Z M 18.644531 19.0625 C 18.65625 19.0625 18.664062 19.0625 18.675781 19.066406 L 19.3125 19.4375 C 19.332031 19.449219 19.34375 19.46875 19.34375 19.488281 L 19.34375 20.226562 C 19.34375 20.246094 19.332031 20.265625 19.3125 20.277344 L 18.675781 20.644531 C 18.65625 20.65625 18.636719 20.65625 18.617188 20.644531 L 17.980469 20.277344 C 17.960938 20.265625 17.949219 20.246094 17.949219 20.226562 L 17.949219 19.488281 C 17.949219 19.46875 17.960938 19.449219 17.980469 19.4375 L 18.617188 19.070312 C 18.628906 19.0625 18.636719 19.0625 18.644531 19.0625 Z M 18.644531 19.0625 " fill-opacity="1" fill-rule="nonzero"/></g><g clip-path="url(#69592d6b08)"><path fill="#2e5203" d="M 13.0625 17.441406 C 13.023438 17.441406 12.988281 17.453125 12.953125 17.472656 L 11.085938 18.542969 C 11.015625 18.585938 10.976562 18.664062 10.976562 18.742188 L 10.976562 20.894531 C 10.976562 20.980469 11.011719 21.046875 11.085938 21.089844 L 12.953125 22.167969 C 13.027344 22.210938 13.101562 22.210938 13.175781 22.167969 L 15.042969 21.089844 C 15.117188 21.046875 15.152344 20.980469 15.152344 20.894531 L 15.152344 18.742188 C 15.152344 18.664062 15.109375 18.585938 15.042969 18.546875 L 13.175781 17.472656 C 13.140625 17.453125 13.105469 17.441406 13.0625 17.441406 Z M 24.21875 19.363281 C 24.210938 19.363281 24.203125 19.363281 24.195312 19.367188 L 23.835938 19.578125 C 23.820312 19.585938 23.816406 19.597656 23.8125 19.613281 L 23.8125 20.023438 C 23.8125 20.039062 23.824219 20.054688 23.835938 20.0625 L 24.195312 20.269531 C 24.210938 20.277344 24.222656 20.277344 24.238281 20.269531 L 24.59375 20.0625 C 24.609375 20.054688 24.617188 20.039062 24.617188 20.023438 L 24.617188 19.613281 C 24.617188 19.597656 24.609375 19.585938 24.59375 19.578125 L 24.238281 19.367188 C 24.230469 19.363281 24.226562 19.363281 24.21875 19.363281 Z M 24.21875 19.363281 " fill-opacity="1" fill-rule="nonzero"/></g></svg>